PathFileType	4	(X/Y/Z)	E:/Microgravity/Neeraj_13_07_24_t02 _without_weight_pp.trc	
DataRate	CameraRate	NumFrames	NumMarkers	Units	OrigDataRate	OrigDataStartFrame	OrigNumFrames	
120.00	120.00	36	5	m	120.00	2647	7058	
Frame#	Time	RHAND			r_radius_styloid			RWRB			r_humerus_epicondyle			r_acromion			
		X1	Y1	Z1	X2	Y2	Z2	X3	Y3	Z3	X4	Y4	Z4	X5	Y5	Z5	

2647	22.050	0.20102	1.42964	0.19756	0.14317	1.35897	0.26108	0.19224	1.32115	0.18318	-0.00957	1.20357	0.27926	-0.01753	1.52143	0.19283 
2648	22.058	0.20112	1.42947	0.19753	0.14326	1.35894	0.26114	0.19232	1.32112	0.18325	-0.00951	1.20357	0.27930	-0.01746	1.52142	0.19286 
2649	22.067	0.20122	1.42935	0.19748	0.14335	1.35891	0.26121	0.19240	1.32108	0.18333	-0.00945	1.20356	0.27934	-0.01738	1.52141	0.19290 
2650	22.075	0.20132	1.42929	0.19739	0.14345	1.35887	0.26128	0.19248	1.32104	0.18340	-0.00939	1.20355	0.27938	-0.01731	1.52141	0.19293 
2651	22.083	0.20142	1.42929	0.19730	0.14354	1.35884	0.26135	0.19257	1.32099	0.18346	-0.00933	1.20354	0.27942	-0.01723	1.52140	0.19297 
2652	22.092	0.20151	1.42935	0.19720	0.14363	1.35880	0.26142	0.19265	1.32094	0.18353	-0.00927	1.20353	0.27947	-0.01715	1.52139	0.19300 
2653	22.100	0.20160	1.42947	0.19711	0.14372	1.35877	0.26148	0.19273	1.32090	0.18359	-0.00922	1.20352	0.27951	-0.01707	1.52139	0.19304 
2654	22.108	0.20169	1.42961	0.19704	0.14381	1.35873	0.26154	0.19281	1.32085	0.18364	-0.00917	1.20351	0.27955	-0.01698	1.52138	0.19307 
2655	22.117	0.20177	1.42974	0.19703	0.14390	1.35869	0.26160	0.19289	1.32081	0.18370	-0.00912	1.20350	0.27959	-0.01690	1.52137	0.19311 
2656	22.125	0.20185	1.42981	0.19707	0.14399	1.35866	0.26165	0.19297	1.32077	0.18375	-0.00907	1.20349	0.27964	-0.01681	1.52136	0.19314 
2657	22.133	0.20193	1.42981	0.19720	0.14407	1.35862	0.26170	0.19305	1.32072	0.18379	-0.00902	1.20348	0.27968	-0.01672	1.52134	0.19318 
2658	22.142	0.20201	1.42977	0.19736	0.14415	1.35859	0.26174	0.19312	1.32068	0.18383	-0.00898	1.20347	0.27973	-0.01663	1.52133	0.19322 
2659	22.150	0.20208	1.42972	0.19751	0.14423	1.35856	0.26178	0.19320	1.32064	0.18386	-0.00893	1.20347	0.27978	-0.01653	1.52132	0.19327 
2660	22.158	0.20215	1.42968	0.19763	0.14431	1.35853	0.26181	0.19327	1.32060	0.18389	-0.00888	1.20346	0.27982	-0.01643	1.52131	0.19331 
2661	22.167	0.20222	1.42965	0.19773	0.14439	1.35850	0.26184	0.19334	1.32056	0.18391	-0.00883	1.20345	0.27987	-0.01633	1.52130	0.19336 
2662	22.175	0.20229	1.42963	0.19782	0.14447	1.35847	0.26187	0.19342	1.32053	0.18394	-0.00878	1.20345	0.27991	-0.01623	1.52130	0.19341 
2663	22.183	0.20236	1.42961	0.19788	0.14454	1.35845	0.26190	0.19349	1.32051	0.18396	-0.00873	1.20345	0.27996	-0.01613	1.52129	0.19346 
2664	22.192	0.20243	1.42959	0.19791	0.14461	1.35843	0.26192	0.19356	1.32049	0.18399	-0.00868	1.20345	0.28001	-0.01603	1.52128	0.19350 
2665	22.200	0.20250	1.42957	0.19791	0.14468	1.35841	0.26194	0.19364	1.32047	0.18402	-0.00864	1.20345	0.28006	-0.01594	1.52128	0.19354 
2666	22.208	0.20256	1.42954	0.19788	0.14475	1.35839	0.26196	0.19371	1.32046	0.18405	-0.00859	1.20345	0.28011	-0.01584	1.52127	0.19358 
2667	22.217	0.20263	1.42951	0.19783	0.14482	1.35838	0.26198	0.19378	1.32044	0.18408	-0.00854	1.20345	0.28016	-0.01575	1.52127	0.19362 
2668	22.225	0.20270	1.42947	0.19777	0.14488	1.35837	0.26200	0.19386	1.32044	0.18411	-0.00849	1.20345	0.28022	-0.01566	1.52127	0.19366 
2669	22.233	0.20276	1.42942	0.19771	0.14495	1.35836	0.26202	0.19394	1.32043	0.18415	-0.00844	1.20345	0.28027	-0.01558	1.52127	0.19370 
2670	22.242	0.20282	1.42939	0.19767	0.14502	1.35836	0.26204	0.19401	1.32042	0.18418	-0.00838	1.20345	0.28033	-0.01549	1.52127	0.19374 
2671	22.250	0.20289	1.42938	0.19768	0.14508	1.35835	0.26207	0.19408	1.32040	0.18421	-0.00832	1.20346	0.28038	-0.01541	1.52126	0.19378 
2672	22.258	0.20295	1.42939	0.19770	0.14515	1.35834	0.26209	0.19414	1.32039	0.18424	-0.00826	1.20346	0.28044	-0.01533	1.52126	0.19382 
2673	22.267	0.20301	1.42940	0.19772	0.14522	1.35834	0.26212	0.19420	1.32038	0.18427	-0.00820	1.20346	0.28050	-0.01526	1.52126	0.19387 
2674	22.275	0.20307	1.42941	0.19773	0.14528	1.35833	0.26215	0.19426	1.32037	0.18430	-0.00814	1.20346	0.28055	-0.01518	1.52126	0.19392 
2675	22.283	0.20314	1.42943	0.19775	0.14535	1.35833	0.26219	0.19432	1.32036	0.18434	-0.00807	1.20347	0.28061	-0.01511	1.52125	0.19397 
2676	22.292	0.20321	1.42944	0.19777	0.14542	1.35832	0.26223	0.19438	1.32035	0.18438	-0.00801	1.20347	0.28067	-0.01504	1.52125	0.19402 
2677	22.300	0.20328	1.42946	0.19779	0.14548	1.35832	0.26227	0.19444	1.32034	0.18442	-0.00794	1.20347	0.28073	-0.01497	1.52125	0.19407 
2678	22.308	0.20335	1.42949	0.19782	0.14554	1.35831	0.26232	0.19450	1.32033	0.18446	-0.00788	1.20347	0.28079	-0.01491	1.52125	0.19412 
2679	22.317	0.20342	1.42953	0.19785	0.14561	1.35831	0.26237	0.19457	1.32032	0.18451	-0.00781	1.20348	0.28085	-0.01486	1.52125	0.19416 
2680	22.325	0.20350	1.42957	0.19787	0.14567	1.35830	0.26243	0.19463	1.32031	0.18457	-0.00774	1.20348	0.28091	-0.01482	1.52125	0.19419 
2681	22.333	0.20357	1.42960	0.19789	0.14574	1.35830	0.26249	0.19469	1.32030	0.18462	-0.00768	1.20348	0.28098	-0.01478	1.52124	0.19423 
2682	22.342	0.20363	1.42963	0.19791	0.14580	1.35830	0.26255	0.19476	1.32029	0.18468	-0.00760	1.20348	0.28104	-0.01474	1.52124	0.19427 
